<?xml version="1.0" standalone="no"?>
<!DOCTYPE svg PUBLIC "-//W3C//DTD SVG 20010904//EN"
 "http://www.w3.org/TR/2001/REC-SVG-20010904/DTD/svg10.dtd">
<svg version="1.0" xmlns="http://www.w3.org/2000/svg"
 width="317.000000pt" height="95.000000pt" viewBox="0 0 317.000000 95.000000"
 preserveAspectRatio="xMidYMid meet">

<g transform="translate(0.000000,95.000000) scale(0.100000,-0.100000)"
fill="#000000" stroke="none">
<path d="M0 475 l0 -475 1585 0 1585 0 0 475 0 475 -1585 0 -1585 0 0 -475z
m900 0 l0 -455 -440 0 -440 0 0 448 c0 247 3 452 7 455 3 4 201 7 440 7 l433
0 0 -455z m535 122 c29 -29 46 -55 50 -81 21 -110 -80 -211 -192 -190 -49 9
-110 66 -124 116 -28 107 47 198 165 198 56 0 61 -2 101 -43z m243 -74 l3
-113 80 0 c92 0 119 -10 119 -45 0 -36 -28 -45 -140 -45 -146 0 -140 -8 -140
164 0 78 3 146 7 150 4 4 21 6 38 4 l30 -3 3 -112z m386 101 c3 -9 6 -73 6
-144 0 -104 -3 -132 -16 -144 -18 -19 -20 -19 -45 -6 -17 10 -19 23 -19 154 0
78 3 146 7 149 13 13 61 7 67 -9z m351 6 c30 -12 42 -36 28 -59 -8 -12 -27
-16 -89 -16 -89 0 -110 -16 -37 -28 26 -5 59 -11 71 -13 70 -14 95 -102 44
-154 -70 -69 -285 -36 -243 38 8 14 24 17 95 17 102 0 115 16 25 31 -75 12
-104 28 -120 66 -18 43 -4 81 41 111 28 19 141 24 185 7z m437 -129 c63 -109
75 -138 67 -153 -18 -34 -41 -34 -69 0 -26 31 -29 32 -105 32 -76 0 -79 -1
-105 -31 -20 -24 -31 -30 -47 -25 -42 13 -37 41 23 143 103 175 102 175 132
171 23 -3 38 -22 104 -137z"/>
<path d="M363 733 c-59 -20 -141 -97 -169 -158 -18 -38 -24 -67 -24 -120 0
-87 24 -142 88 -208 144 -147 395 -99 481 93 30 65 28 169 -3 235 -29 63 -111
138 -173 159 -57 20 -144 19 -200 -1z m212 -37 c101 -48 158 -135 157 -241 0
-82 -24 -136 -87 -193 -75 -69 -168 -90 -268 -60 -53 16 -140 97 -162 151 -21
52 -22 150 -2 198 58 139 230 208 362 145z"/>
<path d="M369 601 c-54 -34 -79 -80 -79 -146 0 -97 64 -165 163 -172 105 -8
186 66 187 170 0 143 -150 225 -271 148z m175 -20 c45 -30 66 -70 66 -126 0
-56 -21 -96 -66 -126 -37 -24 -116 -25 -156 -1 -92 54 -93 193 -2 253 39 25
119 25 158 0z"/>
<path d="M1260 612 c-46 -24 -83 -93 -77 -144 13 -102 129 -160 215 -108 98
60 94 201 -8 252 -45 23 -86 23 -130 0z m129 -58 c26 -21 31 -33 31 -69 0 -36
-5 -48 -31 -69 -43 -36 -91 -35 -130 3 -21 22 -29 39 -29 66 0 27 8 44 29 66
39 38 87 39 130 3z"/>
<path d="M1270 540 c-12 -12 -20 -33 -20 -55 0 -71 79 -101 136 -52 23 20 26
28 20 60 -4 20 -16 43 -29 52 -30 21 -83 19 -107 -5z"/>
<path d="M1623 614 c-8 -21 13 -42 28 -27 13 13 5 43 -11 43 -6 0 -13 -7 -17
-16z"/>
<path d="M1617 563 c-8 -8 -9 -147 -1 -155 3 -3 14 -4 25 -1 17 5 19 15 19 84
0 70 -2 79 -18 79 -10 0 -22 -3 -25 -7z"/>
<path d="M1623 374 c-8 -21 13 -42 28 -27 13 13 5 43 -11 43 -6 0 -13 -7 -17
-16z"/>
<path d="M1687 383 c-4 -3 -7 -15 -7 -25 0 -15 8 -18 60 -18 57 0 60 1 60 25
0 24 -3 25 -53 25 -30 0 -57 -3 -60 -7z"/>
<path d="M1831 380 c-17 -10 -7 -40 13 -40 7 0 16 6 19 14 8 19 -15 37 -32 26z"/>
<path d="M2013 614 c-8 -21 13 -42 28 -27 13 13 5 43 -11 43 -6 0 -13 -7 -17
-16z"/>
<path d="M2008 509 c-4 -74 3 -104 25 -105 15 -2 17 8 17 81 0 76 -2 84 -19
82 -16 -1 -20 -10 -23 -58z"/>
<path d="M2013 374 c-8 -21 13 -42 28 -27 13 13 5 43 -11 43 -6 0 -13 -7 -17
-16z"/>
<path d="M2253 615 c-56 -24 -71 -85 -30 -123 17 -16 43 -25 91 -31 71 -8 91
-22 75 -53 -8 -14 -22 -18 -69 -18 -57 0 -60 -1 -60 -25 0 -23 3 -25 49 -25
87 0 131 29 131 85 0 18 -7 40 -15 49 -18 17 -77 36 -117 36 -41 0 -58 10 -58
35 0 27 17 35 75 35 34 0 44 4 48 19 8 33 -60 42 -120 16z"/>
<path d="M2390 591 c0 -15 6 -21 21 -21 25 0 22 33 -4 38 -12 2 -17 -3 -17
-17z"/>
<path d="M2205 390 c-8 -14 3 -30 21 -30 8 0 14 9 14 20 0 21 -24 28 -35 10z"/>
<path d="M2723 614 c-3 -8 -1 -20 5 -26 15 -15 43 8 35 28 -7 19 -32 18 -40
-2z"/>
<path d="M2670 525 c-18 -31 -30 -59 -27 -62 16 -16 55 10 72 47 17 37 17 42
3 56 -14 14 -19 10 -48 -41z"/>
<path d="M2764 556 c-8 -32 23 -85 54 -93 36 -9 36 2 2 61 -35 62 -47 68 -56
32z"/>
<path d="M2727 496 c-18 -27 -13 -36 20 -36 26 0 29 16 9 43 -13 16 -14 16
-29 -7z"/>
<path d="M2623 434 c-8 -21 13 -42 28 -27 13 13 5 43 -11 43 -6 0 -13 -7 -17
-16z"/>
<path d="M2690 431 c-5 -11 -10 -22 -10 -25 0 -3 29 -6 65 -6 36 0 65 3 65 6
0 3 -5 14 -10 25 -15 27 -95 27 -110 0z"/>
<path d="M2833 434 c-8 -21 13 -42 28 -27 13 13 5 43 -11 43 -6 0 -13 -7 -17
-16z"/>
<path d="M2591 380 c-17 -10 -7 -40 13 -40 7 0 16 6 19 14 8 19 -15 37 -32 26z"/>
<path d="M2871 380 c-17 -10 -7 -40 13 -40 7 0 16 6 19 14 8 19 -15 37 -32 26z"/>
</g>
</svg>
