<svg width="317" height="95" xmlns="http://www.w3.org/2000/svg">

 <g>
  <title>Layer 1</title>
  <g fill="white">
   <g fill="#000000" transform="translate(0 95) scale(0.1 -0.1)">
    <path fill="#aa6da3" d="m0,475.00012l0,-475l1585,0l1585,0l0,475l0,475l-1585,0l-1585,0l0,-475zm900,0l0,-455l-440,0l-440,0l0,448c0,247 3,452 7,455c3,4 201,7 440,7l433,0l0,-455zm535,122c29,-29 46,-55 50,-81c21,-110 -80,-211 -192,-190c-49,9 -110,66 -124,116c-28,107 47,198 165,198c56,0 61,-2 101,-43zm243,-74l3,-113l80,0c92,0 119,-10 119,-45c0,-36 -28,-45 -140,-45c-146,0 -140,-8 -140,164c0,78 3,146 7,150c4,4 21,6 38,4l30,-3l3,-112zm386,101c3,-9 6,-73 6,-144c0,-104 -3,-132 -16,-144c-18,-19 -20,-19 -45,-6c-17,10 -19,23 -19,154c0,78 3,146 7,149c13,13 61,7 67,-9zm351,6c30,-12 42,-36 28,-59c-8,-12 -27,-16 -89,-16c-89,0 -110,-16 -37,-28c26,-5 59,-11 71,-13c70,-14 95,-102 44,-154c-70,-69 -285,-36 -243,38c8,14 24,17 95,17c102,0 115,16 25,31c-75,12 -104,28 -120,66c-18,43 -4,81 41,111c28,19 141,24 185,7zm437,-129c63,-109 75,-138 67,-153c-18,-34 -41,-34 -69,0c-26,31 -29,32 -105,32c-76,0 -79,-1 -105,-31c-20,-24 -31,-30 -47,-25c-42,13 -37,41 23,143c103,175 102,175 132,171c23,-3 38,-22 104,-137z"/>
    <path fill="#aa6da3" d="m363,733.00012c-59,-20 -141,-97 -169,-158c-18,-38 -24,-67 -24,-120c0,-87 24,-142 88,-208c144,-147 395,-99 481,93c30,65 28,169 -3,235c-29,63 -111,138 -173,159c-57,20 -144,19 -200,-1zm212,-37c101,-48 158,-135 157,-241c0,-82 -24,-136 -87,-193c-75,-69 -168,-90 -268,-60c-53,16 -140,97 -162,151c-21,52 -22,150 -2,198c58,139 230,208 362,145z"/>
    <path fill="#aa6da3" d="m369,601.00012c-54,-34 -79,-80 -79,-146c0,-97 64,-165 163,-172c105,-8 186,66 187,170c0,143 -150,225 -271,148zm175,-20c45,-30 66,-70 66,-126c0,-56 -21,-96 -66,-126c-37,-24 -116,-25 -156,-1c-92,54 -93,193 -2,253c39,25 119,25 158,0z"/>
    <path fill="#aa6da3" d="m1260,612.00012c-46,-24 -83,-93 -77,-144c13,-102 129,-160 215,-108c98,60 94,201 -8,252c-45,23 -86,23 -130,0zm129,-58c26,-21 31,-33 31,-69c0,-36 -5,-48 -31,-69c-43,-36 -91,-35 -130,3c-21,22 -29,39 -29,66c0,27 8,44 29,66c39,38 87,39 130,3z"/>
    <path fill="#aa6da3" d="m1270,540.00012c-12,-12 -20,-33 -20,-55c0,-71 79,-101 136,-52c23,20 26,28 20,60c-4,20 -16,43 -29,52c-30,21 -83,19 -107,-5z"/>
    <path fill="#aa6da3" d="m1623,614.00012c-8,-21 13,-42 28,-27c13,13 5,43 -11,43c-6,0 -13,-7 -17,-16z"/>
    <path fill="#aa6da3" d="m1617,563.00012c-8,-8 -9,-147 -1,-155c3,-3 14,-4 25,-1c17,5 19,15 19,84c0,70 -2,79 -18,79c-10,0 -22,-3 -25,-7z"/>
    <path fill="#aa6da3" d="m1623,374.00012c-8,-21 13,-42 28,-27c13,13 5,43 -11,43c-6,0 -13,-7 -17,-16z"/>
    <path fill="#aa6da3" d="m1687,383.00012c-4,-3 -7,-15 -7,-25c0,-15 8,-18 60,-18c57,0 60,1 60,25c0,24 -3,25 -53,25c-30,0 -57,-3 -60,-7z"/>
    <path fill="#aa6da3" d="m1831,380.00012c-17,-10 -7,-40 13,-40c7,0 16,6 19,14c8,19 -15,37 -32,26z"/>
    <path fill="#aa6da3" d="m2013,614.00012c-8,-21 13,-42 28,-27c13,13 5,43 -11,43c-6,0 -13,-7 -17,-16z"/>
    <path fill="#aa6da3" d="m2008,509.00012c-4,-74 3,-104 25,-105c15,-2 17,8 17,81c0,76 -2,84 -19,82c-16,-1 -20,-10 -23,-58z"/>
    <path fill="#aa6da3" d="m2013,374.00012c-8,-21 13,-42 28,-27c13,13 5,43 -11,43c-6,0 -13,-7 -17,-16z"/>
    <path fill="#aa6da3" d="m2253,615.00012c-56,-24 -71,-85 -30,-123c17,-16 43,-25 91,-31c71,-8 91,-22 75,-53c-8,-14 -22,-18 -69,-18c-57,0 -60,-1 -60,-25c0,-23 3,-25 49,-25c87,0 131,29 131,85c0,18 -7,40 -15,49c-18,17 -77,36 -117,36c-41,0 -58,10 -58,35c0,27 17,35 75,35c34,0 44,4 48,19c8,33 -60,42 -120,16z"/>
    <path fill="#aa6da3" d="m2390,591.00012c0,-15 6,-21 21,-21c25,0 22,33 -4,38c-12,2 -17,-3 -17,-17z"/>
    <path fill="#aa6da3" d="m2205,390.00012c-8,-14 3,-30 21,-30c8,0 14,9 14,20c0,21 -24,28 -35,10z"/>
    <path fill="#aa6da3" d="m2723,614.00012c-3,-8 -1,-20 5,-26c15,-15 43,8 35,28c-7,19 -32,18 -40,-2z"/>
    <path fill="#aa6da3" d="m2670,525.00012c-18,-31 -30,-59 -27,-62c16,-16 55,10 72,47c17,37 17,42 3,56c-14,14 -19,10 -48,-41z"/>
    <path fill="#aa6da3" d="m2764,556.00012c-8,-32 23,-85 54,-93c36,-9 36,2 2,61c-35,62 -47,68 -56,32z"/>
    <path fill="#aa6da3" d="m2727,496.00012c-18,-27 -13,-36 20,-36c26,0 29,16 9,43c-13,16 -14,16 -29,-7z"/>
    <path fill="#aa6da3" d="m2623,434.00012c-8,-21 13,-42 28,-27c13,13 5,43 -11,43c-6,0 -13,-7 -17,-16z"/>
    <path fill="#aa6da3" d="m2690,431.00012c-5,-11 -10,-22 -10,-25c0,-3 29,-6 65,-6c36,0 65,3 65,6c0,3 -5,14 -10,25c-15,27 -95,27 -110,0z"/>
    <path fill="#aa6da3" d="m2833,434.00012c-8,-21 13,-42 28,-27c13,13 5,43 -11,43c-6,0 -13,-7 -17,-16z"/>
    <path fill="#aa6da3" d="m2591,380.00012c-17,-10 -7,-40 13,-40c7,0 16,6 19,14c8,19 -15,37 -32,26z"/>
    <path fill="#aa6da3" d="m2871,380.00012c-17,-10 -7,-40 13,-40c7,0 16,6 19,14c8,19 -15,37 -32,26z"/>
   </g>
  </g>
 </g>
</svg>